<svg xmlns:xlink="http://www.w3.org/1999/xlink" xmlns="http://www.w3.org/2000/svg" viewBox="0 0 32 32" aria-hidden="true" role="presentation" focusable="false" style="display: block; height: 24px; width: 24px; fill: currentcolor;" width="32"  height="32" ><path d="M20 8a2 2 0 0 1 2 1.85V12h3.34a2 2 0 0 1 1.77 1.07l.07.14 2.58 6.02a3 3 0 0 1 .23.94l.01.24V28a2 2 0 0 1-1.85 2H4a2 2 0 0 1-2-1.85v-7.74a3 3 0 0 1 .16-.95l.08-.23 2.58-6.02a2 2 0 0 1 1.68-1.2l.16-.01H10v-2a2 2 0 0 1 1.85-2H12zm8 14H4v6h24zm-6-8a2 2 0 0 1-1.85 2H12a2 2 0 0 1-2-1.85V14H6.66l-2.57 6H27.9l-2.57-6zm-2-4h-8v4h8z" fill="#222222"></path></svg>