<svg xmlns:xlink="http://www.w3.org/1999/xlink" xmlns="http://www.w3.org/2000/svg" viewBox="0 0 32 32" aria-hidden="true" role="presentation" focusable="false" style="display: block; height: 24px; width: 24px; fill: currentcolor;" width="32"  height="32" ><path d="M20 0a2 2 0 0 1 2 1.85V6h4V2h2v4.76l1.68 3.37a3 3 0 0 1 .31 1.11l.01.23V30h-2v-2h-6v2h-2v-2H4v2H2V11.47a3 3 0 0 1 .22-1.13l.1-.21L4 6.76V2h2v4h4V2a2 2 0 0 1 1.85-2H12zm0 24H4v2h16zm8 0h-6v2h6zm-8-8H4v6h16zm8 4h-6v2h6zm0-4h-6v2h6zm-8-4H4v2h16zm8 0h-6v2h6zm-1.62-4H5.62l-1 2h22.76zM20 2h-8v4h8z" fill="#222222"></path></svg>