<svg xmlns:xlink="http://www.w3.org/1999/xlink" xmlns="http://www.w3.org/2000/svg" viewBox="0 0 32 32" aria-hidden="true" role="presentation" focusable="false" style="display: block; height: 24px; width: 24px; fill: currentcolor;" width="32"  height="32" ><path d="M23 12a5 5 0 0 1 4.24 2.35l.12.2.12.23.12.26.04.1 2.86 6.46c.25.57.41 1.19.47 1.83l.03.33V27a3 3 0 0 1-2.64 2.98l-.17.01L28 30H4a3 3 0 0 1-2.98-2.64l-.01-.17L1 27v-3c0-.81.16-1.59.46-2.3l3.07-6.94a5 5 0 0 1 6.72-2.22l.08.04.08-.04a4.98 4.98 0 0 1 2-.53l.26-.01c.8 0 1.56.19 2.25.54l.08.04.08-.04a4.98 4.98 0 0 1 1.99-.53l.26-.01c.8 0 1.57.19 2.26.54l.08.04.07-.04a4.97 4.97 0 0 1 2-.53zm2 8c-.8 0-1.54.23-2.19.65l-.2.15-.6.45-.61-.45A3.98 3.98 0 0 0 19 20c-.8 0-1.54.23-2.19.65l-.2.15-.6.45-.61-.45A3.98 3.98 0 0 0 13 20c-.8 0-1.54.23-2.19.65l-.2.15-.6.45-.61-.45a4 4 0 0 0-6 1.47l-.07.13a3.93 3.93 0 0 0-.32 1.36L3 24v3.08a1 1 0 0 0 .88.91L4 28H28.08a1 1 0 0 0 .91-.88L29 27v-3.18a3.98 3.98 0 0 0-.33-1.41l-.05-.11A4 4 0 0 0 25 20zm0 3a1 1 0 1 1 0 2 1 1 0 0 1 0-2zm-2-9c-.57 0-1.1.16-1.58.45l-.17.11-.58.42-.59-.42a2.98 2.98 0 0 0-1.75-.56c-.56 0-1.1.16-1.57.45l-.18.11-.58.42-.58-.42a2.98 2.98 0 0 0-1.75-.56c-.57 0-1.11.16-1.58.45l-.17.11-.59.42-.58-.42A2.98 2.98 0 0 0 9 14a3 3 0 0 0-2.57 1.45l-.1.16-1.18 2.68A6 6 0 0 1 7 18c.93 0 1.83.21 2.64.61l.27.14.1.05.08-.05a5.96 5.96 0 0 1 2.32-.72l.3-.02L13 18c.93 0 1.83.21 2.64.61l.27.14.1.05.08-.05a5.96 5.96 0 0 1 2.32-.72l.3-.02L19 18c.93 0 1.83.21 2.64.61l.27.14.1.05.08-.05a5.96 5.96 0 0 1 2.32-.72l.3-.02L25 18c.65 0 1.27.1 1.85.29l-1.05-2.38-.07-.15-.03-.06-.1-.18A3 3 0 0 0 23 14z" fill="#222222"></path></svg>